<svg width="current" height="current" viewBox="0 0 31 35" fill="none" xmlns="http://www.w3.org/2000/svg">
<path d="M30.5615 12.4556C30.5227 12.2206 30.4862 11.9832 30.4473 11.7483C30.4012 11.3983 30.3283 10.943 30.1996 10.4241C28.963 5.42378 23.7543 0 15.4871 0C8.28387 0 2.2638 5.08846 0.772143 11.8927C0.623949 12.5535 0.521912 13.2339 0.466035 13.9241H0.410156V35H9.92129V32.572H9.94072C10.1667 29.821 12.4527 27.6573 15.2417 27.6573C18.0307 27.6573 20.3167 29.821 20.5427 32.572H20.5621V35H30.5591V33.3087C30.3162 30.1636 29.2302 26.4336 25.1002 24.7203C29.7161 22.5175 30.3162 18.2979 30.5591 15.1528V12.4556H30.5615ZM20.72 20.0699H10.0768V15.1944H10.0962C10.3221 12.4434 12.6082 10.2797 15.3972 10.2797C18.1861 10.2797 20.4722 12.4434 20.6981 15.1944H20.7176V20.0699H20.72Z" fill="currentColor"/>
</svg>
