<svg width="current" height="current" viewBox="0 0 31 35" fill="none" xmlns="http://www.w3.org/2000/svg">
<path d="M30.0955 13.9241C29.4566 6.12622 22.9798 0 15.0769 0C14.7392 0 14.4064 0.0146853 14.076 0.0367133L14.0906 0H10.7696C4.82237 0 0 4.85839 0 10.85V35H15.6308C19.807 35 23.8373 33.2745 26.6044 30.122C26.7065 30.0045 26.8085 29.8846 26.9081 29.7647C29.046 27.1703 30.1514 23.8685 30.1514 20.4958V13.9217H30.0955V13.9241ZM15.0696 24.6934V24.7203H9.85368V10.2797H15.0696V10.3066C18.5242 10.6126 20.3001 13.7161 20.3001 17.5C20.3001 21.2839 18.5242 24.3874 15.0696 24.6934Z" fill="currentColor"/>
</svg>
