<svg width="current" height="current" viewBox="0 0 40 40" fill="none" xmlns="http://www.w3.org/2000/svg">
<circle cx="19.5239" cy="10" r="8.50001" stroke="currentColor" stroke-width="3"/>
<mask id="path-2-inside-1_432_178" fill="white">
<path fill-rule="evenodd" clip-rule="evenodd" d="M39.0477 32.9091C39.0477 32.9872 39.0459 33.0652 39.0425 33.1429H38.8774V40H0.170264V33.1429H0.00517435C0.00173101 33.0652 0 32.9872 0 32.9091C0 27.3576 8.74112 22.8572 19.5238 22.8572C30.3066 22.8572 39.0477 27.3576 39.0477 32.9091Z"/>
</mask>
<path d="M39.0425 33.1429V36.1429H41.9124L42.0396 33.2757L39.0425 33.1429ZM38.8774 33.1429V30.1429H35.8774V33.1429H38.8774ZM38.8774 40V43H41.8774V40H38.8774ZM0.170264 40H-2.82974V43H0.170264V40ZM0.170264 33.1429H3.17026V30.1429H0.170264V33.1429ZM0.00517435 33.1429L-2.99188 33.2757L-2.86482 36.1429H0.00517435V33.1429ZM42.0396 33.2757C42.045 33.1537 42.0477 33.0315 42.0477 32.9091H36.0477C36.0477 32.943 36.0469 32.9766 36.0454 33.01L42.0396 33.2757ZM38.8774 36.1429H39.0425V30.1429H38.8774V36.1429ZM35.8774 33.1429V40H41.8774V33.1429H35.8774ZM38.8774 37H0.170264V43H38.8774V37ZM3.17026 40V33.1429H-2.82974V40H3.17026ZM0.00517435 36.1429H0.170264V30.1429H0.00517435V36.1429ZM-3 32.9091C-3 33.0316 -2.99729 33.1538 -2.99188 33.2757L3.00223 33.01C3.00075 32.9765 3 32.9429 3 32.9091H-3ZM19.5238 19.8572C13.7553 19.8572 8.38419 21.0545 4.34515 23.1341C0.461497 25.1336 -3 28.4309 -3 32.9091H3C3 31.8358 3.90906 30.1071 7.09165 28.4686C10.1188 26.91 14.5096 25.8572 19.5238 25.8572V19.8572ZM42.0477 32.9091C42.0477 28.4309 38.5862 25.1336 34.7025 23.1341C30.6635 21.0545 25.2924 19.8572 19.5238 19.8572V25.8572C24.538 25.8572 28.9288 26.91 31.956 28.4686C35.1386 30.1071 36.0477 31.8358 36.0477 32.9091H42.0477Z" fill="currentColor" mask="url(#path-2-inside-1_432_178)"/>
</svg>
